<?xml version="1.0" encoding="iso-8859-1"?>
<!-- Generator: Adobe Illustrator 19.0.0, SVG Export Plug-In . SVG Version: 6.00 Build 0)  -->
<svg version="1.1" id="Capa_1" xmlns="http://www.w3.org/2000/svg" xmlns:xlink="http://www.w3.org/1999/xlink" x="0px" y="0px"
	 viewBox="0 0 511.999 511.999" style="enable-background:new 0 0 511.999 511.999;" xml:space="preserve">
<path style="fill:#EAEAF1;" d="M430.115,432.14c-24.113,0-43.731-19.618-43.731-43.731c0-24.114,19.618-43.732,43.731-43.732v-17.93
	H143.546l-39.796,15.51l-20.872,46.152l7.172,33.767l33.812,25.616h285.864L430.115,432.14z"/>
<path style="fill:#7C503F;" d="M400.548,7.455H143.546L104.07,167.101l39.476,159.646h286.568V37.021
	C430.115,20.692,416.877,7.455,400.548,7.455z"/>
<polygon style="fill:#FFBA40;" points="332.628,78.424 304.761,78.424 304.761,47.838 268.9,47.838 268.9,78.424 241.032,78.424 
	241.032,114.285 268.9,114.285 268.9,179.707 304.761,179.707 304.761,114.285 332.628,114.285 "/>
<path style="fill:#8A644F;" d="M93.519,7.455c-16.329,0-29.565,13.237-29.565,29.565v351.388l79.592-79.593V7.455H93.519z"/>
<path style="fill:#CCCDD9;" d="M82.878,369.681h307.726c7.028-14.769,22.094-25.004,39.51-25.004v-17.93H143.546l-39.796,15.51
	L82.878,369.681z"/>
<path style="fill:#6E4D40;" d="M430.115,468.001H143.546c-43.887,0-79.592-35.705-79.592-79.592
	c0-43.888,35.705-79.593,79.592-79.593h286.568c9.903,0,17.93,8.027,17.93,17.93c0,9.903-8.027,17.93-17.93,17.93H143.546
	c-24.113,0-43.731,19.618-43.731,43.732c0,24.113,19.618,43.731,43.731,43.731h286.568c9.903,0,17.93,8.027,17.93,17.93
	C448.045,459.973,440.018,468.001,430.115,468.001z"/>
<path style="fill:#F0484A;" d="M143.546,388.409v109.377c0,5.566,6.361,8.738,10.806,5.388l25.678-19.348l25.678,19.348
	c4.446,3.35,10.806,0.178,10.806-5.388V388.409H143.546z"/>
<rect x="143.545" y="388.41" style="fill:#E33D41;" width="72.968" height="30.755"/>
<path d="M241.032,121.833h20.367v57.921c0,4.144,3.359,7.501,7.501,7.501h35.86c4.143,0,7.501-3.358,7.501-7.501v-57.921h20.367
	c4.143,0,7.501-3.359,7.501-7.501V78.47c0-4.143-3.359-7.501-7.501-7.501h-20.367V47.884c0-4.144-3.359-7.501-7.501-7.501H268.9
	c-4.143,0-7.501,3.358-7.501,7.501v23.085h-20.367c-4.143,0-7.501,3.359-7.501,7.501v35.86
	C233.53,118.474,236.889,121.833,241.032,121.833z M248.533,85.971H268.9c4.143,0,7.501-3.359,7.501-7.501V55.385h20.858V78.47
	c0,4.143,3.359,7.501,7.501,7.501h20.367v20.858H304.76c-4.143,0-7.501,3.359-7.501,7.501v57.921h-20.858v-57.921
	c0-4.143-3.359-7.501-7.501-7.501h-20.367L248.533,85.971L248.533,85.971z"/>
<path d="M216.098,230.866h141.463c4.143,0,7.501-3.359,7.501-7.501s-3.359-7.501-7.501-7.501H216.098
	c-4.143,0-7.501,3.359-7.501,7.501S211.956,230.866,216.098,230.866z"/>
<path d="M347.56,248.545H226.1c-4.143,0-7.501,3.359-7.501,7.501c0,4.143,3.359,7.501,7.501,7.501h121.46
	c4.143,0,7.501-3.359,7.501-7.501C355.061,251.903,351.703,248.545,347.56,248.545z"/>
<path d="M430.114,352.225c14.024,0,25.433-11.409,25.433-25.433c0-11.413-7.557-21.093-17.931-24.301V37.067
	C437.615,16.628,420.987,0,400.548,0H93.519C73.081,0,56.453,16.628,56.453,37.067v351.388c0,45.496,35.067,82.95,79.592,86.767
	c0,0,0,22.569,0,22.61c0,11.49,13.652,18.289,22.821,11.379l21.164-15.947c0,0,21.126,15.918,21.164,15.947
	c9.208,6.938,22.822,0.099,22.822-11.379v-22.284h206.098c14.024,0,25.433-11.409,25.433-25.432
	c0-14.01-11.387-25.409-25.433-25.432c-19.977,0-36.229-16.253-36.229-36.229C393.884,368.478,410.137,352.225,430.114,352.225z
	 M71.455,339.634V37.067c0-12.166,9.898-22.064,22.064-22.064h42.527c0,0,0,47.181,0,47.216c0,4.019,3.488,7.501,7.501,7.501
	c4.019,0,7.501-3.485,7.501-7.501V15.003h249.501c12.166,0,22.064,9.898,22.064,22.064v264.295H151.048V92.225
	c0-4.143-3.359-7.501-7.501-7.501s-7.501,3.359-7.501,7.501v209.457c-1.781,0.157-3.56,0.367-5.329,0.627
	c-23.757,3.514-45.289,17.124-58.927,36.849c-0.011,0.017-0.023,0.033-0.034,0.05C71.656,339.349,71.553,339.49,71.455,339.634z
	 M71.455,388.455c0-39.751,32.34-72.092,72.091-72.092h286.568c5.751,0,10.43,4.679,10.43,10.429c0,5.751-4.679,10.43-10.43,10.43
	H143.546c-28.25,0-51.233,22.983-51.233,51.233c0,16.86,8.827,32.97,22.693,42.458c6.237,4.268,13.425,7.043,20.887,8.201
	c0.051,0.008,0.1,0.019,0.151,0.026v21.019C99.805,456.394,71.455,425.673,71.455,388.455z M209.013,496.318l-24.469-18.437
	c-2.672-2.014-6.355-2.014-9.028,0l-24.468,18.437V395.956h57.965V496.318z M430.114,460.546H224.016v-20.858h206.098
	c5.751,0,10.43,4.679,10.43,10.429S435.865,460.546,430.114,460.546z M378.882,388.455c0,14.136,5.753,26.951,15.043,36.229H224.016
	v-36.229c0-4.143-3.359-7.501-7.501-7.501h-72.969c-4.143,0-7.501,3.359-7.501,7.501v35.444c-0.514-0.109-1.618-0.379-1.662-0.391
	c-2.871-0.752-5.651-1.86-8.249-3.294c-11.4-6.286-18.816-18.723-18.816-31.76c0-19.978,16.253-36.231,36.231-36.231h250.378
	C384.636,361.503,378.882,374.319,378.882,388.455z"/>
<g>
</g>
<g>
</g>
<g>
</g>
<g>
</g>
<g>
</g>
<g>
</g>
<g>
</g>
<g>
</g>
<g>
</g>
<g>
</g>
<g>
</g>
<g>
</g>
<g>
</g>
<g>
</g>
<g>
</g>
</svg>
